<?xml version="1.0" encoding="UTF-8"?> <svg xmlns="http://www.w3.org/2000/svg" viewBox="0 0 864 42.6983"><g id="full-rgb"><g><path id="fullLogo" d="M54.7858,4.9327,47.3389,39.5071H38.2964L45.7433,4.9327ZM92.2837,27.2735l4.7882-13.0321,2.6587,13.0321Zm10.1072,12.2336h8.244L103.4541,4.9327H95.741a4.0016,4.0016,0,0,0-3.7235,2.66L78.7207,39.5071h9.3087l1.8617-5.0543h11.4351l1.0647,5.0543ZM78.9869,28.0706c0-9.0425-12.5-9.5734-12.5-13.563a3.5094,3.5094,0,0,1,3.7235-2.925,16.6892,16.6892,0,0,1,8.7763,1.5956l1.5956-7.447a22.6817,22.6817,0,0,0-8.244-1.5955c-8.7763,0-15.16,4.7867-15.16,11.4351,0,5.0528,4.522,7.7131,7.7131,9.3086,3.4573,1.5956,4.7867,2.6588,4.5205,4.2559,0,2.3926-2.6587,3.4573-5.319,3.4573a22.6732,22.6732,0,0,1-9.3072-2.128L53.19,37.91a25.7985,25.7985,0,0,0,9.84,1.8617c9.8395.2662,15.9571-4.52,15.9571-11.7012M42.02,4.9327,27.6584,39.5071H18.085l-7.1808-27.66A3.5313,3.5313,0,0,0,8.7763,8.9224,30.9721,30.9721,0,0,0,0,5.9974L.2662,4.9327H15.4247a4.0281,4.0281,0,0,1,3.99,3.4573l3.7234,19.9467,9.5734-23.404Z" style="fill: #aab7c4"></path><path id="fullLogo-2" data-name="fullLogo" d="M434.2941,19.56V16.1031a2.8608,2.8608,0,0,0-2.66-2.66h-3.722V19.56h-3.99V2.2739h9.84a4.4945,4.4945,0,0,1,5.0528,3.7235V7.3268a4.3882,4.3882,0,0,1-2.3926,3.99,3.9548,3.9548,0,0,1,1.8618,3.9882V19.56h-3.99M427.6456,9.4547H431.9A1.8086,1.8086,0,0,0,434.0279,8.39a1.8075,1.8075,0,0,0-1.0633-2.1264h-5.319V9.4547M484.2917,19.56,477.91,7.8592V19.56h-7.9778l-1.3309-3.7234h-7.4454L459.8245,19.56h-8.51s-5.319-.7985-5.319-8.244c0-9.0424,4.522-9.3086,6.3837-9.3086h5.0528v3.99h-3.99a3.309,3.309,0,0,0-2.925,3.7235V11.05c0,5.85,6.9146,3.99,7.1808,3.99l5.0528-13.0321h5.5852l6.1161,15.6909V2.274h5.5852L486.42,13.709V2.274h3.99V19.8266l-6.1176-.2662m-21.2746-7.9778h3.9882l-1.8618-5.0543-2.1264,5.0543M402.6461,19.56V7.593L397.5933,19.56h-3.1911L389.3493,7.593V19.56H381.37l-1.3293-3.7234h-7.447L371.2644,19.56h-4.5206l6.6485-17.5526h5.5852l6.116,15.9571V2.274h6.3823l4.522,10.9042L400.5183,2.274h6.3837V19.8266l-4.2558-.2662m-28.4569-7.9778h3.99l-1.8618-5.0543-2.1279,5.0543M409.0284,19.56V2.274h12.5v3.99h-8.51V8.9224h8.244v3.99h-8.244v2.925h8.51V19.56h-12.5m31.3818.2662V2.274h3.99V19.8266h-3.99m8.7764,22.3393V38.7086a2.7327,2.7327,0,0,0-2.925-2.6588h-4.2543v6.1161h-4.2558V24.8794h10.3719a4.4411,4.4411,0,0,1,5.319,3.99v1.0632a4.39,4.39,0,0,1-2.3941,3.99,4.6841,4.6841,0,0,1,2.1279,3.9882v4.2558h-3.99M442.272,32.06h4.522a1.6818,1.6818,0,1,0,1.0632-3.1911.8076.8076,0,0,0-1.0632,0h-4.522V32.06M420.7312,42.1659h-3.7235l-4.522-5.0528-4.5205,5.0528H392.0081V24.8794H407.699l4.7867,5.5852,5.0543-5.5852h13.563a4.6093,4.6093,0,0,1,5.3191,3.99v1.0632c0,5.0529-1.8618,6.6484-7.447,6.6484h-4.2558v5.5852h-3.9881m-5.3191-8.51,5.3191,6.116V27.8044l-5.3191,5.8514m-19.1482,4.7866h9.0425l4.2544-4.7866-4.2544-4.7867h-9.0425v2.6588H405.04v3.99h-8.7764v2.925M424.9855,32.06h4.522a1.6818,1.6818,0,0,0,1.0632-3.1911.8076.8076,0,0,0-1.0632,0h-4.522V32.06m53.4564,10.1057h-7.7131v-3.99h6.6485s2.394.2662,2.394-1.3294-3.7235-1.3294-3.7235-1.3294a5.1222,5.1222,0,0,1-5.8513-4.2558v-.7971a5.0075,5.0075,0,0,1,4.522-5.319h9.0425v3.7235h-6.6485s-2.394-.5324-2.394,1.3294c0,1.3294,3.1911,1.3294,3.1911,1.3294s6.6484-.5324,6.6484,4.7866a5.576,5.576,0,0,1-4.7867,6.1176h-1.0632l-.2662-.2662m-22.8716,0V24.8794h13.2968v3.99h-9.0425v2.6588h8.7763v3.99h-8.7763v2.925h9.0425v3.7234H455.57m37.764,0h-7.7116v-3.99h6.6484s2.3926.2662,2.3926-1.3294-3.722-1.3294-3.722-1.3294c-2.9264.5323-5.319-1.5956-5.8513-4.522v-.797a5.0063,5.0063,0,0,1,4.5205-5.3191h9.0425v3.99h-6.6485s-2.394-.5324-2.394,1.3294c0,1.3294,3.1926,1.3294,3.1926,1.3294s6.6484-.5324,6.6484,4.7866a5.576,5.576,0,0,1-4.7882,6.1176h-1.0632c0-.2662,0-.2662-.2661-.2662" style="fill: #aab7c4"></path><path id="fullLogo-3" data-name="fullLogo" d="M525.068,10.2518H518.42v23.67h6.6484a11.8377,11.8377,0,0,0,8.244-2.66,12.1737,12.1737,0,0,0,4.2558-9.0425,11.5817,11.5817,0,0,0-11.17-11.9674H525.068Zm5.319,17.8188a8.42,8.42,0,0,1-6.116,1.8617H522.94V14.2414h1.3309a8.4193,8.4193,0,0,1,6.116,1.8617,8.2519,8.2519,0,0,1,2.3941,5.8514A8.426,8.426,0,0,1,530.387,28.0706Zm9.0425,5.8513H543.95v-23.67H539.43Zm15.4247-14.6277c-2.6587-1.0632-3.4573-1.5955-3.4573-2.9249a2.9482,2.9482,0,0,1,3.1911-2.66,5.5873,5.5873,0,0,1,3.7235,1.8618l2.3941-3.1911a10.4948,10.4948,0,0,0-6.6485-2.6588,6.8178,6.8178,0,0,0-7.1807,6.3822v.2662c0,3.1911,1.3294,5.0529,5.5837,6.3822a16.3587,16.3587,0,0,1,3.1926,1.3294,2.7966,2.7966,0,0,1,1.3294,2.3941,3.4821,3.4821,0,0,1-3.1911,3.4573h-.2662a5.2517,5.2517,0,0,1-4.7867-3.1911l-2.9264,2.9249a9.0381,9.0381,0,0,0,7.9793,4.522,7.5019,7.5019,0,0,0,7.9778-7.1807v-.7986c-.2662-3.1911-1.5956-4.7866-6.9146-6.9146Zm8.244,2.925a12.1459,12.1459,0,0,0,11.9689,12.2336,14.4827,14.4827,0,0,0,5.85-1.3294v-5.319a6.9419,6.9419,0,0,1-5.319,2.66,7.4949,7.4949,0,0,1-7.7116-7.4469v-.5323a7.9538,7.9538,0,0,1,7.4455-8.244A7.4842,7.4842,0,0,1,580.9171,16.9V11.5826a10.2191,10.2191,0,0,0-5.5852-1.3308c-6.9146-.5309-12.2337,5.0528-12.2337,11.9674Zm53.9888,3.99L610.97,10.2518h-4.7867l9.8395,24.201h2.3941l9.84-24.201h-4.7867l-6.3822,15.957Zm13.2969,7.7131H643.15v-3.99h-8.2454V23.55h7.9793V19.56h-7.9793v-5.319H643.15v-3.99H630.3839Zm30.5848-16.7556c0-4.52-2.9265-6.9145-8.2455-6.9145h-6.6484v23.67h4.52V24.3471h.5324l6.1175,9.5748h5.5837l-7.1793-9.841a6.4548,6.4548,0,0,0,5.319-6.9146h0Zm-9.0425,3.99h-1.3309V13.9752h1.3309c2.9249,0,4.2543,1.3294,4.2543,3.4573,0,2.3941-1.3293,3.7235-4.2543,3.7235Z" style="fill: #aab7c4"></path><path id="fullLogo-4" data-name="fullLogo" d="M594.7462,9.9856a12.2012,12.2012,0,0,0-12.2336,12.2336,12.6026,12.6026,0,0,0,12.2336,12.5c6.9146.2662,12.2337-5.319,12.5-12.2336a12.6588,12.6588,0,0,0-12.5-12.5Z" style="fill: #aab7c4;opacity: 0.5"></path><path id="fullLogo-5" data-name="fullLogo" d="M218.3433,15.5708a5.3625,5.3625,0,0,0-4.7866,2.3941,5.1651,5.1651,0,0,0-4.5206-2.3941,4.4171,4.4171,0,0,0-3.99,1.8617V15.837h-2.9249V28.8691h2.9249V21.6883a3.352,3.352,0,0,1,3.4573-3.4573c1.8617,0,2.9249,1.3294,2.9249,3.4573v7.1808h2.9265V21.6883a3.352,3.352,0,0,1,3.4573-3.4573c1.8617,0,2.9249,1.3294,2.9249,3.4573v7.1808h2.9249V20.89a5.0256,5.0256,0,0,0-5.319-5.319Zm18.3512,2.1279a4.8061,4.8061,0,0,0-3.99-1.8617c-3.7235,0-6.3823,2.9249-6.3823,6.9145a6.6007,6.6007,0,0,0,6.3823,6.9146,4.8021,4.8021,0,0,0,3.99-1.8617v1.0647h2.9249V15.837h-2.9249v1.8617Zm-3.7235,9.0425a3.986,3.986,0,0,1-3.99-4.2558,3.9979,3.9979,0,1,1,7.9793,0A3.9861,3.9861,0,0,1,232.971,26.7412Zm16.4895-5.5852L248.13,20.89c-1.0632-.2662-2.1264-.5309-2.1264-1.3294s.797-1.5955,2.3926-1.5955a7.9452,7.9452,0,0,1,3.99,1.0632L253.7148,16.9a10.48,10.48,0,0,0-5.319-1.3294c-3.1912,0-5.3191,1.5955-5.3191,4.2558,0,2.1279,1.5956,3.4573,4.2559,3.7235l1.3294.2661c1.5955.2647,2.1279.7971,2.1279,1.3294,0,1.0632-1.0647,1.5956-2.9265,1.5956-2.1264,0-3.4573-.5324-4.2543-1.3294L242.28,27.5382a10.0117,10.0117,0,0,0,5.5837,1.5971c3.7235,0,5.8514-1.8618,5.8514-4.2559.2662-2.1279-1.3294-3.1911-4.2543-3.7234Zm14.36,5.5852a2.1744,2.1744,0,0,1-2.1264-2.3941V18.7619h5.0528V16.1031h-5.0528v-3.99h-2.9265v3.99h-2.6587v2.6588h2.6587v5.5852c0,3.4573,1.5956,5.0529,4.522,5.0529a6.524,6.524,0,0,0,3.9882-1.3294l-1.0632-2.3941a4.779,4.779,0,0,1-2.3941,1.0647Zm11.7028-11.17c-3.7235,0-6.3838,2.66-6.3838,6.9146S271.8,29.4,275.7879,29.4a8.1235,8.1235,0,0,0,5.3191-1.8618l-1.3294-2.1264a6.3562,6.3562,0,0,1-3.7235,1.3294,3.5175,3.5175,0,0,1-3.7235-3.1911h9.5749V22.4854c-.2662-3.9882-2.6588-6.9146-6.3822-6.9146Zm-3.4573,5.8514a3.2966,3.2966,0,0,1,3.4573-3.1912q2.7925,0,3.1911,3.1912Zm15.6909-3.99V15.837h-2.9264V28.8691h2.9264V21.6883a3.1478,3.1478,0,0,1,3.1911-3.4573,5.0347,5.0347,0,0,1,2.1279.5309l.7971-2.9249a5.1812,5.1812,0,0,0-2.1279-.2662c-1.8618,0-3.1912.5323-3.9882,1.8617Zm13.2968.7985a4.9019,4.9019,0,0,1,3.1911,1.3294l1.8618-1.8617a6.2274,6.2274,0,0,0-4.7867-2.1279,6.7081,6.7081,0,0,0-6.9146,6.9146A6.5594,6.5594,0,0,0,301.32,29.4a6.2263,6.2263,0,0,0,4.7867-2.1265l-1.8618-1.8617a4.4058,4.4058,0,0,1-3.1911,1.3294c-2.1279,0-3.7235-1.5956-3.7235-4.2558S298.9258,18.231,301.0537,18.231Zm17.02-.5323a4.8011,4.8011,0,0,0-3.9882-1.8617c-3.7234,0-6.3837,2.9249-6.3837,6.9145a6.6018,6.6018,0,0,0,6.3837,6.9146,4.797,4.797,0,0,0,3.9882-1.8617v1.0647H321V15.837H318.074v1.8617Zm-3.7235,9.0425a3.9857,3.9857,0,0,1-3.9881-4.2558,3.9972,3.9972,0,1,1,7.9778,0A3.9861,3.9861,0,0,1,314.3505,26.7412Zm13.5645-9.3087V15.837h-2.9264V28.8691h2.9264V21.6883a3.1478,3.1478,0,0,1,3.1911-3.4573,5.0347,5.0347,0,0,1,2.1279.5309l.7971-2.9249a5.1776,5.1776,0,0,0-2.1279-.2662c-1.86,0-3.1911.5323-3.9882,1.8617Zm17.02-7.9778v7.9778a4.8061,4.8061,0,0,0-3.99-1.8617c-3.7235,0-6.3823,2.9264-6.3823,6.9146A6.6008,6.6008,0,0,0,340.9457,29.4a4.8021,4.8021,0,0,0,3.99-1.8618v1.3309h2.925V9.4547Zm-3.7235,17.2865a3.9869,3.9869,0,0,1-3.99-4.2558,3.9979,3.9979,0,1,1,7.9793,0A3.9861,3.9861,0,0,1,341.2118,26.7412ZM149.1974,22.4854a20.2165,20.2165,0,0,1,7.447-15.6909A20.0844,20.0844,0,0,0,144.4108,2.54C133.5065,2.2739,124.73,11.3164,124.73,22.4854a19.6935,19.6935,0,0,0,31.9142,15.957,21.1824,21.1824,0,0,1-7.447-15.957Z" style="fill: #aab7c4"></path><path id="fullLogo-6" data-name="fullLogo" d="M168.878,2.2739a20.0811,20.0811,0,0,0-12.2336,4.2544,20.2565,20.2565,0,0,1,0,31.3818,20.073,20.073,0,0,0,12.2336,4.2558,19.9478,19.9478,0,0,0,0-39.892Z" style="fill: #aab7c4;opacity: 0.5"></path><path id="fullLogo-7" data-name="fullLogo" d="M164.09,22.4854a20.22,20.22,0,0,0-7.4455-15.6909c-4.522,3.7234-10.1072,9.3086-10.1072,15.6909s5.319,11.9674,10.1072,15.6909A20.2179,20.2179,0,0,0,164.09,22.4854Z" style="fill: #aab7c4;opacity: 0.75"></path><path id="fullLogo-8" data-name="fullLogo" d="M757.5488,9.2825h-9.4225a1.3082,1.3082,0,0,0-1.3061,1.12L742.9953,34.518a.7885.7885,0,0,0,.653.8863h4.618a1.3082,1.3082,0,0,0,1.3061-1.12l1.0262-6.4838a1.3081,1.3081,0,0,1,1.3061-1.1195H754.89c6.2039,0,9.7957-2.9853,10.7286-8.956.42-2.6122,0-4.6646-1.2128-6.064C763.1,10.1222,760.7207,9.2825,757.5488,9.2825Zm1.12,8.8161c-.5131,3.3585-3.0786,3.3585-5.5975,3.3585h-1.3994l.98-6.2972a.7675.7675,0,0,1,.793-.653h.653c1.6793,0,3.3119,0,4.1515.98A3.1906,3.1906,0,0,1,758.6683,18.0986Zm27.008-.0933h-4.5246a.8421.8421,0,0,0-.793.6531l-.1866,1.2594-.3265-.4664c-.98-1.3994-3.1719-1.8659-5.3176-1.8659a10.3823,10.3823,0,0,0-10.0756,9.0493,8.4673,8.4673,0,0,0,1.6793,6.9037,7.0125,7.0125,0,0,0,5.6908,2.2856,8.6926,8.6926,0,0,0,6.2506-2.5655l-.1866,1.2594a.7886.7886,0,0,0,.653.8863h4.1982a1.308,1.308,0,0,0,1.306-1.12l2.4256-15.44a.7885.7885,0,0,0-.653-.8863A.1716.1716,0,0,1,785.6763,18.0053Zm-6.25,8.7228a5.0054,5.0054,0,0,1-5.0844,4.2915,3.8645,3.8645,0,0,1-3.032-1.2128,3.81,3.81,0,0,1-.7-3.172,5.0323,5.0323,0,0,1,5.0378-4.338,3.7626,3.7626,0,0,1,2.9853,1.2128A4.03,4.03,0,0,1,779.4258,26.7281Zm30.2732-8.7228h-4.5246a1.3694,1.3694,0,0,0-1.0729.56l-6.25,9.1893-2.6589-8.8161a1.3443,1.3443,0,0,0-1.2594-.933h-4.4314a.7863.7863,0,0,0-.793.793.35.35,0,0,0,.0467.2333l4.9911,14.6468-4.6646,6.6237a.7524.7524,0,0,0,.1866,1.0729.788.788,0,0,0,.4665.14h4.5246a1.2486,1.2486,0,0,0,1.0729-.56l15.0666-21.7371a.7942.7942,0,0,0-.1866-1.0728,1.4155,1.4155,0,0,0-.5131-.14Z" style="fill: #aab7c4"></path><path id="fullLogo-9" data-name="fullLogo" d="M824.6724,9.2825H815.25a1.3082,1.3082,0,0,0-1.3061,1.12l-3.825,24.1159a.7887.7887,0,0,0,.6531.8863h4.9444a.8688.8688,0,0,0,.8863-.793l1.0729-6.8569a1.308,1.308,0,0,1,1.3061-1.12h2.9853c6.2039,0,9.7956-2.9854,10.7286-8.9561.42-2.6121,0-4.6646-1.2128-6.0639C830.1766,10.1222,827.7977,9.2825,824.6724,9.2825Zm1.0728,8.8161c-.5131,3.3585-3.0786,3.3585-5.5975,3.3585h-1.3993l.98-6.2972a.7676.7676,0,0,1,.793-.653h.653c1.6793,0,3.3119,0,4.1515.98A3.1906,3.1906,0,0,1,825.7452,18.0986ZM852.8,18.0053h-4.5246a.8421.8421,0,0,0-.793.6531l-.1866,1.2594-.3265-.4664c-.98-1.3994-3.1253-1.8659-5.3177-1.8659a10.3822,10.3822,0,0,0-10.0755,9.0493,8.4677,8.4677,0,0,0,1.6792,6.9037,7.0128,7.0128,0,0,0,5.6909,2.2856,8.6925,8.6925,0,0,0,6.25-2.5655L845.01,34.518a.7888.7888,0,0,0,.6531.8863h4.1981a1.3081,1.3081,0,0,0,1.3061-1.12l2.4256-15.44a.7886.7886,0,0,0-.653-.8863A.3614.3614,0,0,1,852.8,18.0053Zm-6.2972,8.7228a5.0053,5.0053,0,0,1-5.0844,4.2915,3.8645,3.8645,0,0,1-3.032-1.2128,3.81,3.81,0,0,1-.7-3.172,5.0324,5.0324,0,0,1,5.0378-4.338A3.7626,3.7626,0,0,1,845.71,23.51,4.03,4.03,0,0,1,846.5027,26.7281ZM858.0709,9.9356,854.1993,34.518a.7886.7886,0,0,0,.653.8863h4.0116a1.3082,1.3082,0,0,0,1.3061-1.12l3.8249-24.116a.7884.7884,0,0,0-.653-.8862h-4.478A.8419.8419,0,0,0,858.0709,9.9356Z" style="fill: #aab7c4;opacity: 0.5"></path><path id="fullLogo-10" data-name="fullLogo" d="M703.9992,40.1155l.7-4.5713-1.5859-.0466h-7.65l5.3177-33.7251a.4421.4421,0,0,1,.42-.3731h12.9209c4.2914,0,7.23.8862,8.7695,2.6588A5.8877,5.8877,0,0,1,724.29,6.717a9.4587,9.4587,0,0,1,0,3.6384v1.0262l.7464.42a4.8256,4.8256,0,0,1,1.446,1.12,4.97,4.97,0,0,1,1.1661,2.6588,10.1917,10.1917,0,0,1-.1865,3.8717,14.2841,14.2841,0,0,1-1.586,4.3847,9.4533,9.4533,0,0,1-2.5189,2.7521,10.0623,10.0623,0,0,1-3.3585,1.5393,16.8991,16.8991,0,0,1-4.2448.4665h-1.0262a3.3428,3.3428,0,0,0-1.9591.7,3.1175,3.1175,0,0,0-1.0262,1.8191l-.0933.42-1.1662,8.07-.0466.28a.2424.2424,0,0,1-.0933.1866.1716.1716,0,0,1-.14.0466Z" style="fill: #aab7c4;opacity: 0.5"></path><path id="fullLogo-11" data-name="fullLogo" d="M725.69,10.542c-.0466.2332-.0933.5131-.14.7463-1.6793,8.7228-7.51,11.7548-14.9734,11.7548H706.798a1.851,1.851,0,0,0-1.8192,1.5393L703.0663,36.897l-.56,3.4984a.9889.9889,0,0,0,.7929,1.1195h6.857a1.568,1.568,0,0,0,1.586-1.3527l.0466-.3265,1.2594-8.0231.0933-.42a1.6028,1.6028,0,0,1,1.586-1.3527h1.0262c6.4838,0,11.6149-2.6588,13.1075-10.2621.6064-3.1719.28-5.8774-1.3527-7.7432A5.1351,5.1351,0,0,0,725.69,10.542Z" style="fill: #aab7c4"></path><path id="fullLogo-12" data-name="fullLogo" d="M723.9171,9.8423c-.56-.14-1.0729-.28-1.6326-.3732a20.3318,20.3318,0,0,0-3.3586-.2332H708.85a1.568,1.568,0,0,0-1.586,1.3527l-2.1923,13.6207-.0467.42a1.8511,1.8511,0,0,1,1.8192-1.5393h3.7784c7.4167,0,13.2474-3.032,14.9733-11.7548.0467-.28.0933-.5131.14-.7464-.4665-.2332-.933-.42-1.3994-.6064A1.4816,1.4816,0,0,0,723.9171,9.8423Z" style="fill: #aab7c4;opacity: 0.75"></path><path id="fullLogo-13" data-name="fullLogo" d="M707.2178,10.5886a1.6027,1.6027,0,0,1,1.586-1.3527h10.1221a24.7683,24.7683,0,0,1,3.3586.2332,16.2508,16.2508,0,0,1,2.0524.4665,9.7188,9.7188,0,0,1,1.3994.6064c.5131-3.2186,0-5.4109-1.7726-7.4167C722.0512.9329,718.5528,0,714.1214,0H701.2005a1.8509,1.8509,0,0,0-1.8192,1.5393L694.017,35.5909A1.1064,1.1064,0,0,0,694.95,36.85h8.1164l2.0058-12.6877C705.0721,24.2093,707.2178,10.5886,707.2178,10.5886Z" style="fill: #aab7c4"></path></g></g></svg> 